<?xml version="1.0" encoding="utf-8"?><svg xmlns="http://www.w3.org/2000/svg" xmlns:xlink="http://www.w3.org/1999/xlink"><symbol viewBox="0 0 22 41" id="icon-arrow"><path opacity=".3" d="M2.041 20.503L21.748 1.415A.821.821 0 0022 .83a.801.801 0 00-.252-.585A.86.86 0 0021.14 0a.882.882 0 00-.608.245L.252 19.909a.832.832 0 00-.252.59.81.81 0 00.253.59l20.279 19.673a.894.894 0 00.613.238.877.877 0 00.473-.143.838.838 0 00.313-.372.809.809 0 00-.183-.902L2.041 20.503z"/></symbol><symbol viewBox="0 0 32 32" id="icon-contrast"><g opacity=".3"><path d="M16 4a12 12 0 110 24 12 12 0 010-24zm0-4a16 16 0 100 32 16 16 0 000-32zM16 24.29a8.52 8.52 0 000-17"/></g></symbol><symbol viewBox="0 0 44 44" id="icon-crop"><path d="M32 28h4V12a4 4 0 00-4-4H16v4h16v16zm-20 4V0H8v8H0v4h8v20a4 4 0 004 4h20v8h4v-8h8v-4H12z"/></symbol><symbol viewBox="0 0 9 18" id="icon-facebook"><path d="M6.509 3.193H9V0H6.02C2.762.171 1.6 2.271 2.077 5.816H0v3.336h2.076V18h3.945V9.152h2.958V5.816H6.01c-.02-.998-.041-2.29.499-2.623z"/></symbol><symbol viewBox="0 0 48 43" id="icon-fill"><g opacity=".3"><path d="M33.12 17.88L15.24 0l-2.83 2.83 4.76 4.76L6.88 17.88a3 3 0 000 4.24l11 11a3 3 0 004.24 0l11-11a3 3 0 000-4.24zM10.41 20L20 10.42 29.59 20H10.41zM38 23s-4 4.33-4 7a4 4 0 108 0c0-2.67-4-7-4-7zM48 40H0v3h48v-3z"/></g></symbol><symbol viewBox="0 0 13 12" id="icon-heart"><path d="M6.469 12a.782.782 0 01-.58-.25C1.958 7.42 1.036 6.44.86 6.17A3.765 3.765 0 010 3.8a3.723 3.723 0 01.63-2.045A3.921 3.921 0 012.3.355 4.09 4.09 0 014.487.035 4.031 4.031 0 016.51.9 4.08 4.08 0 019.07 0a4.013 4.013 0 012.78 1.117A3.733 3.733 0 0113 3.8a3.409 3.409 0 01-.923 2.38l-5.038 5.56a.757.757 0 01-.57.25V12zM2.073 5.28c.218.26 2.56 2.84 4.396 4.86l4.478-4.94a1.96 1.96 0 00.539-1.4c0-.618-.254-1.21-.707-1.648A2.461 2.461 0 009.07 1.47c-.38.003-.756.09-1.097.252-.341.163-.64.398-.873.688a.844.844 0 01-.612.28.757.757 0 01-.332-.082.729.729 0 01-.258-.218 2.43 2.43 0 00-.868-.682 2.49 2.49 0 00-2.372.132 2.369 2.369 0 00-.882.968 2.267 2.267 0 00.296 2.462v.01z"/></symbol><symbol viewBox="0 0 27 34" id="icon-html-academy"><path d="M13.643.016L13.5 0 0 1.407v24.606L13.5 34 27 26.013V1.407L13.643.016zm11.591 25L13.5 31.956 1.766 25.015V14.93l11.685 6.916.02 1.253-8.017-4.743-.011 1.225 8.046 4.809.02 1.286-8.045-4.758-.01 1.226L13.5 26.95l8.124-4.833V16.91l3.62-2.15-.01 10.256zm0-11.564l-3.22 1.88-1.482.875-7.065-4.187-.011 1.225 6.04 3.573-.053.031-.13.076-.86.492-4.986-2.948-.011 1.225 3.936 2.328-.933.61-.021.012-2.971-1.742-.011 1.225 1.947 1.135-1.988 1.186-11.618-6.872 11.638-6.958 11.8 6.834zm0-1.225L13.44 5.31 1.766 12.22V2.99L13.5 1.764 25.234 2.99v9.237z"/></symbol><symbol viewBox="0 0 18 13" id="icon-mail"><path d="M14.91 1.68c1.2-.928.91-1.68-.65-1.68H3.73c-1.56 0-1.85.761-.66 1.68l3.75 2.898c.621.45 1.387.696 2.175.696.788 0 1.554-.245 2.175-.696l3.74-2.897z"/><path d="M11.91 6.5L9.7 8.246a1.13 1.13 0 01-.26.111l-.1.047c-.109.042-.223.07-.34.083l-.33-.056-.12-.074a1.183 1.183 0 01-.24-.13L6.08 6.5l-3.9-2.971C1 2.6 0 3.027 0 4.476v5.859c-.003.347.069.692.21 1.014.14.322.348.615.61.863.263.247.576.444.92.58A3.04 3.04 0 002.83 13h12.32c.376 0 .748-.07 1.095-.203.347-.134.662-.331.927-.579.265-.247.475-.541.617-.865.142-.323.214-.669.211-1.018v-5.86c0-1.448-1-1.856-2.18-.928L11.91 6.5z"/></symbol><symbol viewBox="0 0 27 27" id="icon-no"><path d="M15.644 13.507l10.91-10.92a1.503 1.503 0 000-2.14 1.524 1.524 0 00-2.14 0l-10.909 10.92L2.586.447a1.504 1.504 0 00-2.14 0 1.524 1.524 0 000 2.14l10.92 10.92-10.92 10.91a1.503 1.503 0 000 2.139 1.514 1.514 0 002.14 0l10.919-10.91 10.909 10.91a1.514 1.514 0 002.14-2.14l-10.91-10.91z"/></symbol><symbol viewBox="0 0 20 19" id="icon-phone"><path d="M10.04 0C6.465 0 2.908.608 1.583 1.815a6.392 6.392 0 00-1.58 3.892c-.003.055-.003.11 0 .164 0 .21.088.412.245.56a.86.86 0 00.591.232l3.24-.25h.082a.865.865 0 00.581-.237.78.78 0 00.176-.256.746.746 0 00.059-.3V4.046a.83.83 0 01.067-.335.867.867 0 01.198-.286.922.922 0 01.299-.19.961.961 0 01.353-.068h8.153c.246 0 .482.093.656.258a.856.856 0 01.271.621v1.555a.77.77 0 00.238.553c.152.148.36.234.578.239h.091l3.282.251a.876.876 0 00.59-.232.79.79 0 00.182-.257.756.756 0 00.064-.303 1.45 1.45 0 000-.164 6.455 6.455 0 00-1.56-3.863C17.195.608 13.618 0 10.041 0zm0 10.304c-.33 0-.653.093-.928.267-.275.174-.489.421-.615.71-.127.29-.16.608-.095.916.064.307.223.59.457.81.234.222.531.373.856.434.324.061.66.03.965-.09.306-.12.567-.323.75-.583a1.526 1.526 0 00-.204-2.003 1.669 1.669 0 00-.544-.343 1.742 1.742 0 00-.641-.118zM8.788 6.76v-.966a.94.94 0 00-.298-.683 1.048 1.048 0 00-.72-.283c-.271 0-.53.102-.722.283a.94.94 0 00-.298.683v.966l-5.728 5.688a1.932 1.932 0 00-.471.647 1.843 1.843 0 00-.16.772v1.584c0 .421.175.825.488 1.123a1.73 1.73 0 001.183.47h.418v.966c0 .13.027.259.08.379.052.12.129.23.226.321.097.092.212.165.339.215a1.096 1.096 0 001.138-.215.988.988 0 00.227-.321.945.945 0 00.079-.379v-.966h10.905v.966c0 .263.11.514.306.7.196.186.461.29.738.29.277 0 .543-.104.739-.29a.964.964 0 00.306-.7v-.966h.418c.22 0 .438-.04.642-.121.203-.08.388-.198.543-.346a1.58 1.58 0 00.362-.517c.083-.193.125-.4.124-.609v-1.584a1.844 1.844 0 00-.155-.77 1.933 1.933 0 00-.466-.65L13.382 6.76v-.966a.964.964 0 00-.305-.7 1.075 1.075 0 00-.74-.29c-.276 0-.542.105-.738.29a.964.964 0 00-.306.7v.966H8.787zm1.254 1.931c.66 0 1.307.186 1.857.534.55.348.978.843 1.231 1.422.253.578.32 1.215.19 1.83a3.12 3.12 0 01-.915 1.621 3.403 3.403 0 01-1.711.867c-.649.123-1.32.06-1.931-.18a3.312 3.312 0 01-1.5-1.167 3.05 3.05 0 01-.564-1.76c0-.84.352-1.645.98-2.239a3.439 3.439 0 012.363-.928z"/></symbol><symbol viewBox="0 0 18 14" id="icon-twitter"><path d="M11.564.169A3.675 3.675 0 0113.672.14c.688.196 1.291.59 1.723 1.122.71-.21 1.41-.447 2.131-.656a2.03 2.03 0 01-.253.917c-.157.284-.38.533-.653.729.253.026.508-.002.747-.081.24-.08.456-.208.633-.376-.099.414-.3.801-.588 1.131-.287.33-.653.594-1.07.772-.247 6.27-3.367 10.467-10.689 10.296H5.15c-.443 0-4.418-.428-5.149-1.75 1.752.245 3.539-.147 4.984-1.095-1.03-.286-2.852-.447-3.161-2.74.388.133.81.163 1.215.085C1.76 7.705.34 7.039.422 4.993c.398.306.905.462 1.421.438C1.102 5.203-.247 2.31.896.825c1.926 1.723 3.964 3.35 7.59 3.512C8.711 2.205 9.69.777 11.563.169z"/></symbol><symbol viewBox="0 0 31 21" id="icon-yes"><path d="M30.556.43a1.54 1.54 0 00-.499-.318 1.607 1.607 0 00-1.179 0 1.54 1.54 0 00-.499.318L10.374 17.496 2.578 10.11a1.582 1.582 0 00-1.072-.39 1.576 1.576 0 00-1.057.425c-.28.266-.442.625-.449 1.001-.007.377.14.74.411 1.016l8.88 8.412c.142.135.31.243.497.316a1.596 1.596 0 001.67-.316L30.556 2.482c.284-.274.444-.642.444-1.026S30.84.703 30.556.43z"/></symbol><symbol viewBox="0 0 15 13" id="icon-youtube"><path d="M1.834 12.809a1.257 1.257 0 01-1.285.03 1.097 1.097 0 01-.443-.457.97.97 0 01-.092-.603V1.221A.97.97 0 01.106.618C.2.429.355.27.549.16a1.256 1.256 0 011.285.031l12.4 5.502c1.022.445 1.022 1.169 0 1.614l-12.4 5.502z"/></symbol><symbol viewBox="0 0 50 24" id="menu-burger"><path d="M1.137 0c-.15-.003-.3.021-.439.07C.558.12.432.195.326.288A.98.98 0 00.08.614.877.877 0 000 1v2c0 .265.12.52.333.707.213.188.502.293.804.293h47.726c.15.003.3-.021.439-.07.14-.05.266-.123.372-.217a.98.98 0 00.246-.327A.877.877 0 0050 3V1c0-.265-.12-.52-.333-.707A1.22 1.22 0 0048.863 0H1.137zm0 10a1.25 1.25 0 00-.439.07c-.14.05-.266.123-.372.217a.98.98 0 00-.246.327A.877.877 0 000 11v2c0 .265.12.52.333.707.213.188.502.293.804.293h47.726c.15.003.3-.021.439-.07.14-.05.266-.123.372-.217a.98.98 0 00.246-.327A.877.877 0 0050 13v-2c0-.265-.12-.52-.333-.707a1.22 1.22 0 00-.804-.293H1.137zm0 10c-.15-.003-.3.021-.439.07-.14.05-.266.123-.372.217a.98.98 0 00-.246.327A.877.877 0 000 21v2c0 .265.12.52.333.707.213.187.502.293.804.293h47.726c.15.003.3-.021.439-.07.14-.05.266-.124.372-.217a.98.98 0 00.246-.327A.877.877 0 0050 23v-2c0-.265-.12-.52-.333-.707a1.22 1.22 0 00-.804-.293H1.137z"/></symbol><symbol viewBox="0 0 23 23" id="menu-close"><path d="M20.849 0L0 20.849 2.151 23 23 2.151 20.849 0z"/><path d="M2.151 0L0 2.151 20.849 23 23 20.849 2.151 0z"/></symbol></svg>